<svg width="214" height="48" viewBox="0 0 214 48" fill="none" xmlns="http://www.w3.org/2000/svg">
<g clip-path="url(#clip0)">
<path d="M127.026 21.0034C127.87 16.8661 128.275 15.8335 129.132 14.9899C129.78 14.3352 130.549 14.0315 131.663 14.0315C132.662 14.0315 133.445 14.3352 133.924 14.9291C134.288 15.3881 134.497 16.1372 134.497 16.8459C134.497 17.1361 134.497 17.3791 134.443 17.73H132.412C132.466 17.4398 132.466 17.2103 132.466 16.9606C132.466 16.3465 132.257 15.847 131.508 15.847C131.089 15.847 130.779 15.982 130.529 16.252C129.996 16.8054 129.746 17.6288 129.058 21.0034C128.713 22.7447 128.484 24.162 128.484 24.9921C128.484 25.7413 128.774 26.1597 129.463 26.1597C129.942 26.1597 130.266 25.9707 130.515 25.6603C130.819 25.2958 131.015 24.8571 131.15 24.2632H133.202C132.911 25.64 132.493 26.5039 131.703 27.1923C131.109 27.712 130.421 27.9752 129.274 27.9752C128.086 27.9752 127.357 27.5703 126.918 26.8819C126.574 26.3285 126.459 25.829 126.459 25.0056C126.459 24.1822 126.662 22.8594 127.026 21.0034Z" fill="#0071B3"/>
<path d="M137.851 16.0022H135.685L136.049 14.1799H142.414L142.049 16.0022H139.883L137.527 27.82H135.496L137.851 16.0022Z" fill="#0071B3"/>
<path d="M143.946 14.1799H147.031C148.104 14.1799 148.738 14.3892 149.231 14.8886C149.69 15.3475 149.865 16.0225 149.865 16.7446C149.865 17.2238 149.825 17.7232 149.71 18.3374C149.042 21.6917 147.759 22.4949 145.688 22.4949H144.311L143.258 27.82H141.226L143.946 14.1799ZM145.782 20.6794C146.835 20.6794 147.334 20.0652 147.678 18.3442C147.753 17.9595 147.834 17.5005 147.834 17.1563C147.834 16.3937 147.53 16.009 146.666 16.009H145.613L144.675 20.6861H145.782V20.6794Z" fill="#0071B3"/>
<path d="M152.356 14.1799H157.795L157.431 16.0022H154.023L153.22 20.0449H156.149L155.784 21.847H152.855L152.032 26.0045H155.44L155.076 27.82H149.636L152.356 14.1799Z" fill="#0071B3"/>
<path d="M159.638 14.1799H161.473L162.547 21.2328L166.454 14.1799H168.297L165.577 27.82H163.545L165.233 19.3565L162.398 24.7761H161.264L160.65 19.316L158.949 27.82H156.918L159.638 14.1799Z" fill="#0071B3"/>
<path d="M170.538 14.1799H172.569L170.922 22.3802L175.559 14.1799H177.287L174.56 27.82H172.535L174.162 19.64L169.599 27.82H167.818L170.538 14.1799Z" fill="#0071B3"/>
<path d="M179.528 14.1799H181.363L182.436 21.2328L186.344 14.1799H188.187L185.467 27.82H183.435L185.123 19.3565L182.288 24.7761H181.154L180.54 19.316L178.839 27.82H176.808L179.528 14.1799Z" fill="#0071B3"/>
<path d="M188.727 21.0034C189.57 16.8661 189.968 15.8335 190.832 14.9899C191.48 14.3352 192.25 14.0315 193.363 14.0315C194.362 14.0315 195.145 14.3352 195.624 14.9291C195.989 15.3881 196.198 16.1372 196.198 16.8459C196.198 17.1361 196.198 17.3791 196.144 17.73H194.112C194.166 17.4398 194.166 17.2103 194.166 16.9606C194.166 16.3465 193.957 15.847 193.208 15.847C192.79 15.847 192.479 15.982 192.229 16.252C191.696 16.8054 191.446 17.6288 190.751 21.0034C190.407 22.7447 190.178 24.162 190.178 24.9921C190.178 25.7413 190.468 26.1597 191.156 26.1597C191.635 26.1597 191.959 25.9707 192.209 25.6603C192.513 25.2958 192.709 24.8571 192.844 24.2632H194.895C194.605 25.64 194.187 26.5039 193.404 27.1923C192.81 27.712 192.121 27.9752 190.967 27.9752C189.779 27.9752 189.05 27.5703 188.612 26.8819C188.268 26.3285 188.153 25.829 188.153 25.0056C188.153 24.1822 188.362 22.8594 188.727 21.0034Z" fill="#0071B3"/>
<path d="M198.493 21.6917C197.724 21.2126 197.501 20.4296 197.501 19.5253C197.501 19.1811 197.562 18.7559 197.67 18.2024C198.338 14.8886 199.377 14.1799 201.773 14.1799H205.046L202.306 27.82H200.275L201.422 22.1507H200.349L197.433 27.82H195.213L198.493 21.6917ZM199.566 19.2553C199.566 20.0787 199.89 20.4027 200.713 20.4027H201.766L202.644 15.9955H201.55C200.498 15.9955 200.018 16.5354 199.694 18.1957C199.627 18.5669 199.566 18.9313 199.566 19.2553Z" fill="#0071B3"/>
<path d="M125.454 33.2734H127.485L124.765 46.9135H122.734L125.454 33.2734ZM126.203 39.9079L130.38 33.2802H132.641L128.308 39.8876L130.131 46.9202H127.91L126.203 39.9079Z" fill="#0071B3"/>
<path d="M137.528 33.2734H143.541L143.177 35.0957H139.195L138.506 38.585H139.579C140.652 38.585 141.287 38.8145 141.779 39.3139C142.238 39.7729 142.414 40.4275 142.414 41.17C142.414 41.6491 142.353 42.2633 142.259 42.7628C141.591 46.1171 140.301 46.9202 138.236 46.9202H134.808L137.528 33.2734ZM138.331 45.098C139.384 45.098 139.863 44.504 140.227 42.7628C140.301 42.3983 140.362 41.9191 140.362 41.5547C140.362 40.7852 140.072 40.4073 139.215 40.4073H138.142L137.204 45.098H138.331Z" fill="#0071B3"/>
<path d="M146.376 34.0629C147.044 33.4082 147.813 33.1248 148.907 33.1248C150.135 33.1248 150.877 33.5432 151.303 34.2586C151.647 34.7918 151.762 35.271 151.762 36.0809C151.762 36.9245 151.552 38.2474 151.168 40.1034C150.324 44.2609 149.96 45.28 149.062 46.1371C148.414 46.785 147.645 47.0753 146.551 47.0753C145.303 47.0753 144.56 46.6568 144.135 45.9481C143.811 45.4082 143.696 44.929 143.696 44.1259C143.696 43.2822 143.906 41.9594 144.27 40.1034C145.134 35.9392 145.498 34.92 146.376 34.0629ZM149.73 36.1281C149.73 35.4397 149.48 34.9403 148.718 34.9403C148.333 34.9403 148.029 35.0753 147.759 35.3452C147.26 35.8447 146.976 36.7423 146.301 40.0966C145.957 41.8177 145.708 43.2552 145.708 44.0651C145.708 44.7535 145.957 45.253 146.727 45.253C147.111 45.253 147.415 45.118 147.685 44.848C148.184 44.3486 148.468 43.451 149.143 40.0966C149.48 38.3688 149.73 36.9313 149.73 36.1281Z" fill="#0071B3"/>
<path d="M150.864 45.0978H151.053C152.166 45.0978 152.889 44.4094 153.604 40.8458L155.136 33.28H161.305L158.585 46.9201H156.533L158.889 35.0956H156.722L155.555 40.9201C154.522 46.1304 153.469 46.9201 151.107 46.9201H150.493L150.864 45.0978Z" fill="#0071B3"/>
<path d="M163.546 33.2734H165.577L164.524 38.5783H165.597C166.67 38.5783 167.305 38.8077 167.798 39.3072C168.256 39.7661 168.432 40.4208 168.432 41.1632C168.432 41.6424 168.371 42.2566 168.277 42.756C167.609 46.1103 166.319 46.9135 164.254 46.9135H160.826L163.546 33.2734ZM164.349 45.098C165.402 45.098 165.881 44.504 166.245 42.7627C166.319 42.3983 166.38 41.9191 166.38 41.5546C166.38 40.7852 166.09 40.4073 165.233 40.4073H164.16L163.222 45.098H164.349Z" fill="#0071B3"/>
<path d="M172.016 33.2734H174.047L171.692 45.098H173.933L176.288 33.2734H178.32L175.964 45.098H178.205L180.56 33.2734H182.592L179.872 46.9135H169.296L172.016 33.2734Z" fill="#0071B3"/>
<path d="M184.853 33.2734H190.293L189.928 35.0957H186.52L185.71 39.1385H188.646L188.281 40.9405H185.345L184.529 45.098H187.937L187.573 46.9135H182.133L184.853 33.2734Z" fill="#0071B3"/>
<path d="M192.128 33.2734H193.971L195.044 40.3263L198.952 33.2734H200.794L198.068 46.9135H196.043L197.723 38.45L194.889 43.8696H193.762L193.147 38.4095L191.44 46.9135H189.408L192.128 33.2734Z" fill="#0071B3"/>
<path d="M200.389 45.0978C201.516 45.0978 202.016 44.7941 202.475 43.7007L203.008 42.4724L202.029 33.28H204.101L204.466 39.7187L207.395 33.28H209.561L204.041 44.2946C202.988 46.4004 202.549 46.9201 200.038 46.9201L200.389 45.0978Z" fill="#0071B3"/>
<path d="M208.913 44.5783H211.113L210.655 46.9135H208.454L208.913 44.5783ZM211.174 33.2734H213.361L211.329 43.1205H209.413L211.174 33.2734Z" fill="#0071B3"/>
<path fill-rule="evenodd" clip-rule="evenodd" d="M80.4432 28.5287C80.8211 28.5287 81.1384 28.2385 81.1384 27.8808V27.8605V16.8864V16.8391L81.1316 16.7852C81.0979 16.4679 80.8009 16.2115 80.4364 16.2115C80.072 16.2115 79.7885 16.4679 79.748 16.7852V16.8391V16.8864V27.8605L79.7413 27.8808C79.7413 28.2385 80.0585 28.5287 80.4432 28.5287ZM81.739 14.18C83.9393 14.18 84.081 15.9618 84.081 17.1024V27.6243C84.081 28.7717 83.946 30.5534 81.739 30.5534H79.1406C76.9404 30.5534 76.8054 28.7717 76.8054 27.6243V17.1024C76.8054 15.955 76.9404 14.18 79.1406 14.18H81.739ZM32.7334 14.18H38.7334V16.2115H35.8785V30.5467H32.7334V14.18ZM40.8324 14.18H45.7728L47.4128 30.5467H44.342L44.0517 26.1935H42.5669L42.27 30.5467H39.1991L40.8324 14.18ZM43.9303 24.3982L43.3903 16.2115H43.2148L42.6682 24.3982H43.9303ZM51.9213 24.8166V27.8943C51.9213 28.3195 52.2317 28.4342 52.4139 28.4342C52.7042 28.4342 52.9066 28.1777 52.9066 27.8943V24.0945C52.9066 23.5816 52.8189 23.0214 51.6513 23.0214H50.3757V21.2193H51.6985C52.5962 21.2193 52.9134 21.0034 52.9134 20.0045V16.7514C52.9134 16.4679 52.7109 16.2115 52.4207 16.2115C52.2385 16.2115 51.928 16.3262 51.928 16.7514V19.4173H48.7761V17.1024C48.7761 15.955 48.9179 14.18 51.1114 14.18H53.7165C55.9168 14.18 56.0517 15.9618 56.0517 17.1024V19.7278C56.0517 21.5028 54.8571 21.9887 53.9123 21.9415V22.1102C56.0247 22.0562 56.0517 23.7435 56.0517 24.3307V27.6243C56.0517 28.7717 55.9168 30.5534 53.7165 30.5534H51.1114C48.9111 30.5534 48.7761 28.7717 48.7761 27.6243V24.8166H51.9213ZM58.117 14.18H65.3993V30.5467H62.4634V16.2115H61.0529V30.5467H58.1237V14.18H58.117ZM67.6738 14.18H72.6142C74.8144 14.18 75.1654 15.9618 75.1654 17.1024V22.0562C75.1654 23.2036 74.8144 24.9854 72.6142 24.9854H70.8189V30.5467H67.6738V14.18ZM71.6423 23.1833C71.9865 23.1833 72.2295 22.8796 72.2295 22.3667V17.0349C72.2295 16.5219 71.9865 16.2182 71.6423 16.2182H70.8121V23.1901H71.6423V23.1833ZM94.1102 14.18H98.2002V30.5467H95.0551V20.2812H94.9471L93.3273 30.5467H90.8099L89.1968 20.2812H89.0889V30.5467H85.937V14.18H90.0202L92.0585 25.6805L94.1102 14.18ZM26.0315 15.847C26.0652 14.1867 25.9033 11.3723 25.0934 8.4297C24.2835 5.48706 22.7042 2.68616 22.4747 2.32846C22.2452 2.69291 20.9966 4.96063 19.8965 8.51744C19.6063 9.5838 19.0866 11.8988 18.9921 14.153C18.8841 16.8864 19.2553 19.5996 19.4038 20.369C19.4038 19.4646 19.4241 16.4477 19.9843 13.9573C20.5444 11.4601 21.6108 8.59168 22.4747 7.13386C23.4128 8.67267 24.5872 11.9865 24.9989 13.9708C25.4173 15.9618 25.6333 18.4994 25.5456 20.3015C25.7953 19.2553 25.991 17.5006 26.0315 15.847ZM22.4882 28.5489C22.9944 27.6108 23.865 25.5523 23.784 22.9404C23.676 20.2745 22.7784 18.3172 22.5017 17.8515C22.1912 18.3172 21.1451 20.5579 21.1654 23.1833C21.2463 25.8763 22.0022 27.631 22.4882 28.5489ZM26.315 8.46344C27.3003 12.8099 27.2868 15.4826 26.8549 18.5332C26.0787 24.0202 23.5816 28.2182 22.5017 29.6288C21.7593 28.6704 20.6254 26.7199 19.8695 24.9044C19.8695 24.9044 18.4387 21.4421 18.0607 18.0675C17.6828 14.6929 17.8448 11.2576 18.9449 7.39708C19.964 3.92801 21.9483 0.809899 22.4882 0C22.8324 0.573678 25.3228 4.11699 26.315 8.46344ZM28.3532 30.5467V41.7435C25.3633 44.9224 21.1114 46.9134 16.3937 46.9134C7.34308 46.9201 0 39.604 0 30.5872C0 21.5771 7.34308 14.2677 16.3937 14.2677V26.5444C14.0382 26.5444 11.6828 27.4421 9.88751 29.2306C9.45557 29.6558 9.08436 30.1147 8.7604 30.5939C6.35096 34.1575 6.72216 39.0439 9.88751 42.1957C11.6828 43.9775 14.0382 44.8819 16.3937 44.8819C18.7357 44.8819 21.0844 43.9977 22.8796 42.216C22.8864 42.2025 22.8999 42.2025 22.9066 42.1957V42.1822L22.9336 42.162C24.7357 40.3735 24.7357 37.4578 22.9336 35.676C21.1316 33.8808 18.216 33.8808 16.4207 35.676C16.4072 35.6828 16.4004 35.6828 16.4004 35.6963V30.5534H28.3532V30.5467ZM95.2643 42.3172C95.2643 40.8931 94.6637 40.5152 93.0304 40.5152H92.7536V37.775H91.0934V44.8819H92.7536C94.5557 44.8819 95.2643 44.6052 95.2643 43.0461V42.3172ZM81.4151 37.7683H77.2373V39.1181H78.5872V44.8886H80.1665V39.1181H81.4218V37.7683H81.4151ZM68.6457 40.1237C68.6457 38.6727 67.937 38.3015 66.2767 38.3015V37.7683H64.6637V38.3015C62.9966 38.3015 62.288 38.6727 62.288 40.1237V42.3442C62.288 43.7885 63.0304 44.1732 64.6637 44.1732V44.8751H66.2767V44.1732C67.91 44.1732 68.6457 43.7885 68.6457 42.3442V40.1237ZM53.6018 37.7683H49.6198V44.8886H53.6018V43.5388H51.3341V41.865H53.3656V40.5152H51.3341V39.1114H53.6018V37.7683ZM39.8403 37.775H38.18V40.5152H37.3296V37.775H35.6693V44.8819H37.3296V41.7705H38.18V44.8819H39.8403V37.775ZM98.2002 46.9201H32.7334V36H98.2002V46.9201ZM63.901 40.0765C63.901 39.6648 64.036 39.5568 64.4004 39.5568H64.6704V42.8639H64.4004C64.036 42.8639 63.901 42.7694 63.901 42.351V40.0765ZM93.1181 41.7705C93.4893 41.7705 93.604 41.865 93.604 42.27V43.1271C93.604 43.5321 93.4893 43.6265 93.1181 43.6265H92.7469V41.7705H93.1181ZM66.5399 39.5568C66.9111 39.5568 67.0394 39.6378 67.0394 40.063V42.351C67.0394 42.7694 66.9111 42.8706 66.5399 42.8706H66.2767V39.5636H66.5399" fill="#0071B3"/>
<path fill-rule="evenodd" clip-rule="evenodd" d="M94.1102 14.1799H98.2002V30.5534H95.0551V20.2879H94.9471L93.3273 30.5534H90.8099L89.1969 20.2879H89.0889V30.5534H85.937V14.1799H90.0202L92.0585 25.6872L94.1102 14.1799Z" fill="#0071B3"/>
<path d="M110.47 13.1069L113.953 30.5535L110.47 48.0001H112.077L115.559 30.5535L112.077 13.1069H110.47Z" fill="#0071B3"/>
</g>
<defs>
<clipPath id="clip0">
<rect width="213.361" height="48" fill="white"/>
</clipPath>
</defs>
</svg>
